<?xml version="1.0" encoding="utf-8"?>
<!-- Generator: Adobe Illustrator 28.1.0, SVG Export Plug-In . SVG Version: 6.00 Build 0)  -->
<svg version="1.1" id="Ebene_1" xmlns="http://www.w3.org/2000/svg" xmlns:xlink="http://www.w3.org/1999/xlink" x="0px" y="0px"
	 viewBox="0 0 1164.1 284.2" style="enable-background:new 0 0 1164.1 284.2;" xml:space="preserve">
<style type="text/css">
	.st0{fill:#FFFFFF;}
</style>
<g>
	<path class="st0" d="M4.4,34h34.1v217H4.4V34z"/>
	<path class="st0" d="M102.9,31.5c33.2,0,50.2,19.8,50.2,54.6v6.8h-32.2v-9c0-15.5-6.2-21.4-17-21.4c-10.8,0-17,5.9-17,21.4
		c0,15.8,6.8,27.6,29.1,47.1c28.5,25.1,37.5,43.1,37.5,67.9c0,34.7-17.4,54.6-50.8,54.6c-33.5,0-50.8-19.8-50.8-54.6v-13.3H84v15.5
		c0,15.5,6.8,21.1,17.7,21.1s17.7-5.6,17.7-21.1c0-15.8-6.8-27.6-29.1-47.1c-28.5-25.1-37.5-43.1-37.5-67.9
		C52.7,51.4,69.8,31.5,102.9,31.5z"/>
	<path class="st0" d="M200.9,125.5h46.8v31h-46.8V220h58.9v31h-93V34h93v31h-58.9V125.5z"/>
	<path class="st0" d="M346,251c-1.9-5.6-3.1-9-3.1-26.7v-34.1c0-20.1-6.8-27.6-22.3-27.6h-11.8V251h-34.1V34h51.5
		c35.3,0,50.5,16.4,50.5,49.9v17c0,22.3-7.1,36.6-22.3,43.7v0.6c17,7.1,22.6,23.2,22.6,45.9v33.5c0,10.5,0.3,18.3,3.7,26.3H346z
		 M308.8,65v66.6h13.3c12.7,0,20.5-5.6,20.5-22.9V87.3c0-15.5-5.3-22.3-17.4-22.3H308.8z"/>
	<path class="st0" d="M458.8,188.1h0.6L482.4,34h47.4v217h-32.2V95.4h-0.6L474,251h-32.2L417,97.6h-0.6V251h-29.8V34H434
		L458.8,188.1z"/>
	<path class="st0" d="M652.6,251h-34.4l-5.9-39.4h-41.8l-5.9,39.4h-31.3l34.7-217h49.9L652.6,251z M574.7,182.2h32.9L591.5,72.4
		h-0.6L574.7,182.2z"/>
	<path class="st0" d="M687,93.8h-0.6V251h-30.7V34h42.8l34.4,129.9h0.6V34h30.4v217h-35L687,93.8z"/>
	<path class="st0" d="M842.6,34h34.1v186h56.1v31h-90.2V34z"/>
	<path class="st0" d="M1051.8,251h-34.4l-5.9-39.4h-41.8l-5.9,39.4h-31.3l34.7-217h49.9L1051.8,251z M974,182.2h32.9L990.8,72.4
		h-0.6L974,182.2z"/>
	<path class="st0" d="M1157.2,83.9v7.8c0,22.3-6.8,36.3-22,43.4v0.6c18.3,7.1,25.4,23.2,25.4,46.2v17.7c0,33.5-17.7,51.5-51.8,51.5
		h-53.6V34h51.5C1142,34,1157.2,50.4,1157.2,83.9z M1089.3,65v57.3h13.3c12.7,0,20.5-5.6,20.5-22.9V87.3c0-15.5-5.3-22.3-17.4-22.3
		H1089.3z M1089.3,153.3V220h19.5c11.5,0,17.7-5.3,17.7-21.4v-18.9c0-20.1-6.5-26.3-22-26.3H1089.3z"/>
</g>
</svg>
