<?xml version="1.0" encoding="utf-8"?>
<!-- Generator: Adobe Illustrator 28.1.0, SVG Export Plug-In . SVG Version: 6.00 Build 0)  -->
<svg version="1.1" id="Ebene_1" xmlns="http://www.w3.org/2000/svg" xmlns:xlink="http://www.w3.org/1999/xlink" x="0px" y="0px"
	 viewBox="0 0 1164.1 284.2" style="enable-background:new 0 0 1164.1 284.2;" xml:space="preserve">
<g>
	<path d="M7.4,33.4h34.1v217H7.4V33.4z"/>
	<path d="M105.9,31c33.2,0,50.2,19.8,50.2,54.6v6.8h-32.2v-9c0-15.5-6.2-21.4-17-21.4c-10.8,0-17,5.9-17,21.4
		c0,15.8,6.8,27.6,29.1,47.1c28.5,25.1,37.5,43.1,37.5,67.9c0,34.7-17.4,54.6-50.8,54.6c-33.5,0-50.8-19.8-50.8-54.6V185H87v15.5
		c0,15.5,6.8,21.1,17.7,21.1s17.7-5.6,17.7-21.1c0-15.8-6.8-27.6-29.1-47.1c-28.5-25.1-37.5-43.1-37.5-67.9
		C55.7,50.8,72.8,31,105.9,31z"/>
	<path d="M203.9,124.9h46.8v31h-46.8v63.5h58.9v31h-93v-217h93v31h-58.9V124.9z"/>
	<path d="M349,250.4c-1.9-5.6-3.1-9-3.1-26.7v-34.1c0-20.1-6.8-27.6-22.3-27.6h-11.8v88.3h-34.1v-217h51.5
		c35.3,0,50.5,16.4,50.5,49.9v17c0,22.3-7.1,36.6-22.3,43.7v0.6c17,7.1,22.6,23.2,22.6,45.9v33.5c0,10.5,0.3,18.3,3.7,26.3H349z
		 M311.8,64.4v66.6h13.3c12.7,0,20.5-5.6,20.5-22.9V86.8c0-15.5-5.3-22.3-17.4-22.3H311.8z"/>
	<path d="M461.8,187.5h0.6l22.9-154.1h47.4v217h-32.2V94.8H500L477,250.4h-32.2L420,97h-0.6v153.4h-29.8v-217H437L461.8,187.5z"/>
	<path d="M655.6,250.4h-34.4l-5.9-39.4h-41.8l-5.9,39.4h-31.3l34.7-217h49.9L655.6,250.4z M577.8,181.6h32.9L594.5,71.9h-0.6
		L577.8,181.6z"/>
	<path d="M690,93.3h-0.6v157.2h-30.7v-217h42.8l34.4,129.9h0.6V33.4h30.4v217h-35L690,93.3z"/>
	<path d="M845.6,33.4h34.1v186h56.1v31h-90.2V33.4z"/>
	<path d="M1054.8,250.4h-34.4l-5.9-39.4h-41.8l-5.9,39.4h-31.3l34.7-217h49.9L1054.8,250.4z M977,181.6h32.9L993.8,71.9h-0.6
		L977,181.6z"/>
	<path d="M1160.2,83.3v7.8c0,22.3-6.8,36.3-22,43.4v0.6c18.3,7.1,25.4,23.2,25.4,46.2V199c0,33.5-17.7,51.5-51.8,51.5h-53.6v-217
		h51.5C1145,33.4,1160.2,49.9,1160.2,83.3z M1092.3,64.4v57.3h13.3c12.7,0,20.5-5.6,20.5-22.9V86.8c0-15.5-5.3-22.3-17.4-22.3
		H1092.3z M1092.3,152.8v66.6h19.5c11.5,0,17.7-5.3,17.7-21.4v-18.9c0-20.1-6.5-26.3-22-26.3H1092.3z"/>
</g>
</svg>
